<svg width="464" height="37" viewBox="0 0 464 37" fill="none" xmlns="http://www.w3.org/2000/svg">
<path fill-rule="evenodd" clip-rule="evenodd" d="M229.879 32.9729C229.379 29.4729 226.45 20.4297 226.45 20.4297L226.443 20.4095C223.395 10.3254 213.737 3.56701 203.551 3.03415C193.508 2.50877 185.771 8.0572 180.724 22.9566L180.379 23.9755L90.6292 30.4729L0.879226 20.9754L175.317 20.9755C180.918 5.61937 192.495 -0.548318 203.708 0.0382509C215.015 0.629792 225.85 8.11366 229.309 19.5209C229.309 19.5209 231.725 27.8797 233.302 31.5002C234.879 35.1207 230.379 36.4729 229.879 32.9729Z" fill="#C3932F"/>
<path fill-rule="evenodd" clip-rule="evenodd" d="M232.081 5.48656C232.902 5.59787 233.477 6.35359 233.366 7.1745C232.681 12.2268 230.708 19.7421 226.961 25.8911C223.214 32.0393 217.471 37.1339 209.258 36.468C204.229 36.0602 200.679 33.8562 198.58 30.8563C196.508 27.8945 195.925 24.2622 196.6 21.0973C197.275 17.936 199.26 15.0667 202.487 13.9397C205.723 12.8093 209.763 13.5843 214.245 16.7475C215.71 17.7815 217.38 20.4728 215.88 21.9728C214.38 23.4728 211.678 22.8346 210.38 21.0973C209.258 19.5973 206.38 16.9728 203.88 17.4728C201.795 17.8898 200.047 19.3224 199.534 21.7236C199.022 24.1212 199.47 26.8952 201.038 29.1364C202.58 31.3397 205.281 33.1357 209.501 33.4779C216.089 34.012 220.929 30.0233 224.399 24.3298C227.868 18.6372 229.745 11.5524 230.393 6.77141C230.505 5.9505 231.26 5.37525 232.081 5.48656Z" fill="#C3932F"/>
<path fill-rule="evenodd" clip-rule="evenodd" d="M234.646 32.9729C235.146 29.4729 238.076 20.4297 238.076 20.4297L238.082 20.4095C241.13 10.3254 250.789 3.56701 260.975 3.03416C271.017 2.50878 278.755 8.05721 283.801 22.9566L284.146 23.9755L373.896 30.4729L463.646 20.9755L289.209 20.9755C283.608 5.61937 272.03 -0.548314 260.818 0.0382535C249.51 0.629794 238.675 8.11366 235.217 19.5209C235.217 19.5209 232.8 27.8797 231.223 31.5002C229.646 35.1207 234.146 36.4729 234.646 32.9729Z" fill="#C3932F"/>
<path fill-rule="evenodd" clip-rule="evenodd" d="M232.445 5.48668C231.624 5.59799 231.049 6.35371 231.16 7.17462C231.845 12.227 233.818 19.7422 237.566 25.8912C241.313 32.0394 247.056 37.134 255.268 36.4682C260.298 36.0603 263.847 33.8563 265.946 30.8565C268.018 27.8946 268.602 24.2623 267.926 21.0974C267.251 17.9362 265.267 15.0669 262.04 13.9398C258.803 12.8095 254.763 13.5844 250.282 16.7476C248.817 17.7816 247.147 20.4729 248.647 21.9729C250.147 23.4729 252.848 22.8348 254.147 21.0974C255.268 19.5974 258.147 16.9729 260.647 17.4729C262.732 17.8899 264.48 19.3225 264.992 21.7237C265.504 24.1214 265.056 26.8953 263.488 29.1366C261.946 31.3398 259.246 33.1358 255.025 33.478C248.438 34.0121 243.597 30.0234 240.128 24.33C236.658 18.6373 234.781 11.5525 234.133 6.77153C234.022 5.95062 233.266 5.37537 232.445 5.48668Z" fill="#C3932F"/>
</svg>
