<svg width="37" height="464" viewBox="0 0 37 464" fill="none" xmlns="http://www.w3.org/2000/svg">
<path fill-rule="evenodd" clip-rule="evenodd" d="M3.55371 234.024C7.05371 234.524 16.0969 237.454 16.0969 237.454L16.1171 237.46C26.2012 240.508 32.9596 250.167 33.4925 260.353C34.0178 270.396 28.4694 278.133 13.57 283.179L12.5512 283.524L6.05371 373.274L15.5512 463.024V288.587C30.9072 282.986 37.0749 271.408 36.4884 260.196C35.8968 248.889 28.413 238.053 17.0057 234.595C17.0057 234.595 8.64686 232.178 5.0264 230.601C1.40594 229.024 0.0537109 233.524 3.55371 234.024Z" fill="#C3932F"/>
<path fill-rule="evenodd" clip-rule="evenodd" d="M31.0399 231.823C30.9286 231.002 30.1729 230.427 29.352 230.538C24.2996 231.223 16.7844 233.196 10.6354 236.943C4.48721 240.69 -0.607414 246.433 0.0584393 254.646C0.466263 259.675 2.67027 263.225 5.67015 265.324C8.63198 267.396 12.2643 267.979 15.4292 267.304C18.5905 266.629 21.4598 264.644 22.5868 261.417C23.7172 258.181 22.9422 254.141 19.779 249.659C18.745 248.194 16.0537 246.524 14.5537 248.024C13.0537 249.524 13.6918 252.226 15.4292 253.524C16.9292 254.646 19.5537 257.524 19.0537 260.024C18.6367 262.109 17.2041 263.857 14.8029 264.37C12.4052 264.882 9.63133 264.434 7.39004 262.866C5.1868 261.324 3.3908 258.623 3.04863 254.403C2.51448 247.815 6.50319 242.975 12.1966 239.505C17.8893 236.036 24.9741 234.159 29.7551 233.511C30.576 233.399 31.1512 232.644 31.0399 231.823Z" fill="#C3932F"/>
<path fill-rule="evenodd" clip-rule="evenodd" d="M3.55371 229.257C7.05371 228.757 16.0969 225.828 16.0969 225.828L16.1171 225.821C26.2012 222.773 32.9596 213.115 33.4925 202.929C34.0178 192.886 28.4694 185.149 13.57 180.102L12.5512 179.757L6.05371 90.0073L15.5512 0.257278V174.695C30.9072 180.296 37.0749 191.873 36.4884 203.086C35.8968 214.393 28.413 225.228 17.0057 228.687C17.0057 228.687 8.64686 231.103 5.0264 232.68C1.40594 234.257 0.0537109 229.757 3.55371 229.257Z" fill="#C3932F"/>
<path fill-rule="evenodd" clip-rule="evenodd" d="M31.0399 231.459C30.9286 232.28 30.1729 232.855 29.352 232.744C24.2996 232.059 16.7844 230.086 10.6354 226.338C4.48721 222.591 -0.607414 216.848 0.0584393 208.636C0.466263 203.606 2.67027 200.057 5.67015 197.958C8.63198 195.886 12.2643 195.302 15.4292 195.978C18.5905 196.653 21.4598 198.637 22.5868 201.864C23.7172 205.101 22.9422 209.141 19.779 213.622C18.745 215.087 16.0537 216.757 14.5537 215.257C13.0537 213.757 13.6918 211.056 15.4292 209.757C16.9292 208.636 19.5537 205.757 19.0537 203.257C18.6367 201.172 17.2041 199.424 14.8029 198.912C12.4052 198.4 9.63133 198.848 7.39004 200.416C5.1868 201.958 3.3908 204.658 3.04863 208.878C2.51448 215.466 6.50319 220.307 12.1966 223.776C17.8893 227.246 24.9741 229.123 29.7551 229.771C30.576 229.882 31.1512 230.638 31.0399 231.459Z" fill="#C3932F"/>
</svg>
