<svg width="38" height="464" viewBox="0 0 38 464" fill="none" xmlns="http://www.w3.org/2000/svg">
<path fill-rule="evenodd" clip-rule="evenodd" d="M33.5 234.024C30 234.524 20.9568 237.454 20.9568 237.454L20.9366 237.46C10.8525 240.508 4.09411 250.167 3.56125 260.353C3.03587 270.396 8.5843 278.133 23.4837 283.179L24.5026 283.524L31 373.274L21.5026 463.024V288.587C6.14647 282.986 -0.0212162 271.408 0.565352 260.196C1.15689 248.889 8.64076 238.053 20.048 234.595C20.048 234.595 28.4068 232.178 32.0273 230.601C35.6478 229.024 37 233.524 33.5 234.024Z" fill="#C3932F"/>
<path fill-rule="evenodd" clip-rule="evenodd" d="M6.01378 231.823C6.12509 231.002 6.88081 230.427 7.70172 230.538C12.7541 231.223 20.2693 233.196 26.4183 236.943C32.5665 240.69 37.6611 246.433 36.9953 254.646C36.5874 259.675 34.3834 263.225 31.3836 265.324C28.4217 267.396 24.7894 267.979 21.6245 267.304C18.4633 266.629 15.5939 264.644 14.4669 261.417C13.3366 258.181 14.1115 254.141 17.2747 249.659C18.3087 248.194 21 246.524 22.5 248.024C24 249.524 23.3619 252.226 21.6245 253.524C20.1245 254.646 17.5 257.524 18 260.024C18.417 262.109 19.8496 263.857 22.2508 264.37C24.6485 264.882 27.4224 264.434 29.6637 262.866C31.8669 261.324 33.6629 258.623 34.0051 254.403C34.5392 247.815 30.5505 242.975 24.8571 239.505C19.1644 236.036 12.0796 234.159 7.29863 233.511C6.47772 233.399 5.90247 232.644 6.01378 231.823Z" fill="#C3932F"/>
<path fill-rule="evenodd" clip-rule="evenodd" d="M33.5 229.257C30 228.757 20.9568 225.828 20.9568 225.828L20.9366 225.821C10.8525 222.773 4.09411 213.115 3.56125 202.929C3.03587 192.886 8.5843 185.149 23.4837 180.102L24.5026 179.757L31 90.0073L21.5026 0.257278V174.695C6.14647 180.296 -0.0212162 191.873 0.565352 203.086C1.15689 214.393 8.64076 225.228 20.048 228.687C20.048 228.687 28.4068 231.103 32.0273 232.68C35.6478 234.257 37 229.757 33.5 229.257Z" fill="#C3932F"/>
<path fill-rule="evenodd" clip-rule="evenodd" d="M6.01378 231.459C6.12509 232.28 6.88081 232.855 7.70172 232.744C12.7541 232.059 20.2693 230.086 26.4183 226.338C32.5665 222.591 37.6611 216.848 36.9953 208.636C36.5874 203.606 34.3834 200.057 31.3836 197.958C28.4217 195.886 24.7894 195.302 21.6245 195.978C18.4633 196.653 15.5939 198.637 14.4669 201.864C13.3366 205.101 14.1115 209.141 17.2747 213.622C18.3087 215.087 21 216.757 22.5 215.257C24 213.757 23.3619 211.056 21.6245 209.757C20.1245 208.636 17.5 205.757 18 203.257C18.417 201.172 19.8496 199.424 22.2508 198.912C24.6485 198.4 27.4224 198.848 29.6637 200.416C31.8669 201.958 33.6629 204.658 34.0051 208.878C34.5392 215.466 30.5505 220.307 24.8571 223.776C19.1644 227.246 12.0796 229.123 7.29863 229.771C6.47772 229.882 5.90247 230.638 6.01378 231.459Z" fill="#C3932F"/>
</svg>
