<svg width="76" height="76" viewBox="0 0 76 76" fill="none" xmlns="http://www.w3.org/2000/svg">
<g clip-path="url(#clip0_250_7)">
<path fill-rule="evenodd" clip-rule="evenodd" d="M66.7146 0C71.8394 0 76 4.1607 76 9.28536V66.7146C76 71.8393 71.8393 76 66.7146 76H50.9108V47.3642H60.7967L62.6777 35.1001H50.9108V27.1414C50.9108 23.7862 52.5544 20.5157 57.825 20.5157H63.175V10.0746C63.175 10.0746 58.3196 9.24602 53.6777 9.24602C43.9865 9.24602 37.6524 15.1195 37.6524 25.7529V35.1001H26.8798V47.3642H37.6524V76H9.28536C4.1607 76 0 71.8393 0 66.7146V9.28536C0 4.1607 4.16055 0 9.28536 0L66.7146 0Z" fill="#C19E80"/>
</g>
<defs>
<clipPath id="clip0_250_7">
<rect width="76" height="76" fill="white"/>
</clipPath>
</defs>
</svg>
