<svg width="83" height="83" viewBox="0 0 83 83" fill="none" xmlns="http://www.w3.org/2000/svg">
<g clip-path="url(#clip0_250_2)">
<path fill-rule="evenodd" clip-rule="evenodd" d="M72.8594 0C78.4562 0 83 4.54393 83 10.1406V72.8594C83 78.4561 78.4561 83 72.8594 83H10.1406C4.54393 83 0 78.4561 0 72.8594V10.1406C0 4.54393 4.54376 0 10.1406 0L72.8594 0ZM41.5 13.1309C33.7954 13.1309 32.8293 13.1634 29.8035 13.3016C26.7839 13.4394 24.7217 13.9189 22.9171 14.6203C21.0515 15.3453 19.4695 16.3153 17.8923 17.8923C16.3152 19.4695 15.3451 21.0517 14.6202 22.9171C13.9189 24.7217 13.4394 26.7839 13.3014 29.8035C13.1634 32.8293 13.1309 33.7954 13.1309 41.5C13.1309 49.2046 13.1634 50.1707 13.3014 53.1965C13.4394 56.2161 13.9189 58.2783 14.6202 60.0829C15.3451 61.9483 16.3152 63.5305 17.8923 65.1077C19.4695 66.6848 21.0515 67.6549 22.9171 68.3798C24.7217 69.0811 26.7839 69.5606 29.8035 69.6984C32.8293 69.8366 33.7954 69.8691 41.5 69.8691C49.2046 69.8691 50.1707 69.8366 53.1965 69.6984C56.2161 69.5606 58.2783 69.0811 60.0829 68.3798C61.9483 67.6549 63.5305 66.6848 65.1077 65.1077C66.6848 63.5305 67.6549 61.9483 68.3798 60.0829C69.0811 58.2783 69.5606 56.2161 69.6984 53.1965C69.8366 50.1707 69.8691 49.2046 69.8691 41.5C69.8691 33.7954 69.8366 32.8293 69.6984 29.8035C69.5606 26.7839 69.0811 24.7217 68.3798 22.9171C67.6549 21.0517 66.6848 19.4695 65.1077 17.8923C63.5305 16.3153 61.9483 15.3453 60.0829 14.6203C58.2783 13.9189 56.2161 13.4394 53.1965 13.3016C50.1707 13.1634 49.2046 13.1309 41.5 13.1309ZM41.5 18.2425C49.0749 18.2425 49.9722 18.2713 52.9636 18.4078C55.7295 18.5341 57.2316 18.9963 58.2313 19.3846C59.5556 19.8993 60.5005 20.5141 61.4933 21.5067C62.486 22.4995 63.1008 23.4446 63.6154 24.7687C64.0039 25.7684 64.466 27.2705 64.5922 30.0364C64.7287 33.0278 64.7577 33.9251 64.7577 41.5C64.7577 49.0749 64.7287 49.9722 64.5922 52.9636C64.466 55.7295 64.0039 57.2316 63.6154 58.2313C63.1008 59.5556 62.486 60.5005 61.4933 61.4933C60.5005 62.486 59.5556 63.1008 58.2313 63.6154C57.2316 64.0039 55.7295 64.466 52.9636 64.5922C49.9726 64.7287 49.0754 64.7577 41.5 64.7577C33.9246 64.7577 33.0275 64.7287 30.0364 64.5922C27.2705 64.466 25.7684 64.0039 24.7687 63.6154C23.4444 63.1008 22.4995 62.486 21.5067 61.4933C20.514 60.5005 19.8991 59.5556 19.3846 58.2313C18.9961 57.2316 18.534 55.7295 18.4077 52.9636C18.2712 49.9722 18.2423 49.0749 18.2423 41.5C18.2423 33.9251 18.2712 33.0278 18.4077 30.0364C18.534 27.2705 18.9961 25.7684 19.3846 24.7687C19.8991 23.4446 20.514 22.4995 21.5067 21.5067C22.4995 20.5141 23.4444 19.8993 24.7687 19.3846C25.7684 18.9963 27.2705 18.5341 30.0364 18.4078C33.0278 18.2713 33.9251 18.2425 41.5 18.2425ZM41.5 26.932C33.4543 26.932 26.932 33.4543 26.932 41.5C26.932 49.5457 33.4543 56.068 41.5 56.068C49.5457 56.068 56.068 49.5457 56.068 41.5C56.068 33.4543 49.5457 26.932 41.5 26.932ZM41.5 50.9563C36.2773 50.9563 32.0437 46.7227 32.0437 41.5C32.0437 36.2773 36.2773 32.0437 41.5 32.0437C46.7227 32.0437 50.9563 36.2773 50.9563 41.5C50.9563 46.7227 46.7227 50.9563 41.5 50.9563ZM60.0479 26.3566C60.0479 28.2367 58.5236 29.7607 56.6434 29.7607C54.7635 29.7607 53.2393 28.2367 53.2393 26.3566C53.2393 24.4764 54.7635 22.9523 56.6434 22.9523C58.5236 22.9523 60.0479 24.4764 60.0479 26.3566Z" fill="#C19E80"/>
</g>
<defs>
<clipPath id="clip0_250_2">
<rect width="83" height="83" fill="white"/>
</clipPath>
</defs>
</svg>
